<mxfile host="Electron" agent="Mozilla/5.0 (Windows NT 10.0; Win64; x64) AppleWebKit/537.36 (KHTML, like Gecko) draw.io/24.7.17 Chrome/128.0.6613.36 Electron/32.0.1 Safari/537.36" version="24.7.17">
  <diagram name="Page-1" id="5f0bae14-7c28-e335-631c-24af17079c00">
    <mxGraphModel dx="185" dy="1655" grid="1" gridSize="10" guides="1" tooltips="1" connect="1" arrows="1" fold="1" page="1" pageScale="1" pageWidth="1100" pageHeight="850" background="none" math="0" shadow="0">
      <root>
        <mxCell id="0" />
        <mxCell id="1" parent="0" />
        <mxCell id="Un6Vurzm9FbepwC08adx-20" style="edgeStyle=orthogonalEdgeStyle;rounded=0;orthogonalLoop=1;jettySize=auto;html=1;exitX=0;exitY=0;exitDx=220;exitDy=170;exitPerimeter=0;" parent="1" edge="1">
          <mxGeometry relative="1" as="geometry">
            <mxPoint x="2649.9999999999995" y="80" as="targetPoint" />
            <mxPoint x="2170" as="sourcePoint" />
            <Array as="points">
              <mxPoint x="2240" />
              <mxPoint x="2240" y="40" />
              <mxPoint x="2640" y="40" />
              <mxPoint x="2640" y="80" />
            </Array>
          </mxGeometry>
        </mxCell>
        <mxCell id="Un6Vurzm9FbepwC08adx-8" value="Block" style="verticalAlign=top;align=left;spacingTop=8;spacingLeft=2;spacingRight=12;shape=cube;size=10;direction=south;fontStyle=4;html=1;rounded=0;shadow=0;comic=0;labelBackgroundColor=none;strokeWidth=1;fontFamily=Verdana;fontSize=12" parent="1" vertex="1">
          <mxGeometry x="2035" y="-640" width="330" height="220" as="geometry" />
        </mxCell>
        <mxCell id="Un6Vurzm9FbepwC08adx-12" style="edgeStyle=orthogonalEdgeStyle;rounded=0;orthogonalLoop=1;jettySize=auto;html=1;exitX=0.5;exitY=1;exitDx=0;exitDy=0;entryX=0;entryY=0.5;entryDx=0;entryDy=0;entryPerimeter=0;" parent="1" source="Un6Vurzm9FbepwC08adx-10" target="Un6Vurzm9FbepwC08adx-13" edge="1">
          <mxGeometry relative="1" as="geometry">
            <mxPoint x="2165" y="-360" as="targetPoint" />
          </mxGeometry>
        </mxCell>
        <mxCell id="Un6Vurzm9FbepwC08adx-10" value="«Client-Side»&lt;br&gt;&lt;b&gt;Component&lt;/b&gt;" style="html=1;dropTarget=0;whiteSpace=wrap;" parent="1" vertex="1">
          <mxGeometry x="2110" y="-580" width="180" height="90" as="geometry" />
        </mxCell>
        <mxCell id="Un6Vurzm9FbepwC08adx-11" value="" style="shape=module;jettyWidth=8;jettyHeight=4;" parent="Un6Vurzm9FbepwC08adx-10" vertex="1">
          <mxGeometry x="1" width="20" height="20" relative="1" as="geometry">
            <mxPoint x="-27" y="7" as="offset" />
          </mxGeometry>
        </mxCell>
        <mxCell id="Un6Vurzm9FbepwC08adx-13" value="" style="shape=providedRequiredInterface;html=1;verticalLabelPosition=bottom;sketch=0;direction=south;" parent="1" vertex="1">
          <mxGeometry x="2170" y="-360" width="60" height="60" as="geometry" />
        </mxCell>
        <mxCell id="Un6Vurzm9FbepwC08adx-17" value="NLP Service" style="verticalAlign=top;align=left;spacingTop=8;spacingLeft=2;spacingRight=12;shape=cube;size=10;direction=south;fontStyle=4;html=1;whiteSpace=wrap;" parent="1" vertex="1">
          <mxGeometry x="2400" y="165" width="510" height="275" as="geometry" />
        </mxCell>
        <mxCell id="Un6Vurzm9FbepwC08adx-44" style="edgeStyle=orthogonalEdgeStyle;rounded=0;orthogonalLoop=1;jettySize=auto;html=1;entryX=0.5;entryY=0;entryDx=0;entryDy=0;" parent="1" source="Un6Vurzm9FbepwC08adx-18" target="Un6Vurzm9FbepwC08adx-27" edge="1">
          <mxGeometry relative="1" as="geometry">
            <Array as="points">
              <mxPoint x="2620" y="310" />
              <mxPoint x="2510" y="310" />
            </Array>
          </mxGeometry>
        </mxCell>
        <mxCell id="Un6Vurzm9FbepwC08adx-45" style="edgeStyle=orthogonalEdgeStyle;rounded=0;orthogonalLoop=1;jettySize=auto;html=1;entryX=0.504;entryY=-0.039;entryDx=0;entryDy=0;entryPerimeter=0;" parent="1" source="Un6Vurzm9FbepwC08adx-18" target="Un6Vurzm9FbepwC08adx-25" edge="1">
          <mxGeometry relative="1" as="geometry">
            <Array as="points">
              <mxPoint x="2660" y="310" />
              <mxPoint x="2791" y="310" />
            </Array>
          </mxGeometry>
        </mxCell>
        <mxCell id="Un6Vurzm9FbepwC08adx-65" style="edgeStyle=orthogonalEdgeStyle;rounded=0;orthogonalLoop=1;jettySize=auto;html=1;entryX=1;entryY=0.5;entryDx=0;entryDy=0;" parent="1" source="Un6Vurzm9FbepwC08adx-18" target="Un6Vurzm9FbepwC08adx-48" edge="1">
          <mxGeometry relative="1" as="geometry" />
        </mxCell>
        <mxCell id="Un6Vurzm9FbepwC08adx-77" style="edgeStyle=orthogonalEdgeStyle;rounded=0;orthogonalLoop=1;jettySize=auto;html=1;entryX=1;entryY=0.5;entryDx=0;entryDy=0;entryPerimeter=0;" parent="1" target="Un6Vurzm9FbepwC08adx-79" edge="1">
          <mxGeometry relative="1" as="geometry">
            <mxPoint x="2631" y="260" as="sourcePoint" />
            <mxPoint x="2480" y="540" as="targetPoint" />
            <Array as="points">
              <mxPoint x="2640" y="260" />
            </Array>
          </mxGeometry>
        </mxCell>
        <mxCell id="Un6Vurzm9FbepwC08adx-18" value="«Dialogue Manager»&lt;br&gt;&lt;b&gt;Component&lt;/b&gt;" style="html=1;dropTarget=0;whiteSpace=wrap;" parent="1" vertex="1">
          <mxGeometry x="2550" y="200" width="180" height="90" as="geometry" />
        </mxCell>
        <mxCell id="Un6Vurzm9FbepwC08adx-19" value="" style="shape=module;jettyWidth=8;jettyHeight=4;" parent="Un6Vurzm9FbepwC08adx-18" vertex="1">
          <mxGeometry x="1" width="20" height="20" relative="1" as="geometry">
            <mxPoint x="-27" y="7" as="offset" />
          </mxGeometry>
        </mxCell>
        <mxCell id="Un6Vurzm9FbepwC08adx-24" style="edgeStyle=orthogonalEdgeStyle;rounded=0;orthogonalLoop=1;jettySize=auto;html=1;exitX=1;exitY=0.5;exitDx=0;exitDy=0;exitPerimeter=0;entryX=0.5;entryY=0;entryDx=0;entryDy=0;" parent="1" source="Un6Vurzm9FbepwC08adx-22" target="Un6Vurzm9FbepwC08adx-18" edge="1">
          <mxGeometry relative="1" as="geometry">
            <mxPoint x="2640.3333333333335" y="160" as="targetPoint" />
          </mxGeometry>
        </mxCell>
        <mxCell id="Un6Vurzm9FbepwC08adx-22" value="" style="shape=providedRequiredInterface;html=1;verticalLabelPosition=bottom;sketch=0;direction=south;" parent="1" vertex="1">
          <mxGeometry x="2610" y="60" width="60" height="60" as="geometry" />
        </mxCell>
        <mxCell id="Un6Vurzm9FbepwC08adx-25" value="«OpenAIAPI Handler»&lt;br&gt;&lt;b&gt;Component&lt;/b&gt;" style="html=1;dropTarget=0;whiteSpace=wrap;" parent="1" vertex="1">
          <mxGeometry x="2700" y="330" width="180" height="90" as="geometry" />
        </mxCell>
        <mxCell id="Un6Vurzm9FbepwC08adx-26" value="" style="shape=module;jettyWidth=8;jettyHeight=4;" parent="Un6Vurzm9FbepwC08adx-25" vertex="1">
          <mxGeometry x="1" width="20" height="20" relative="1" as="geometry">
            <mxPoint x="-27" y="7" as="offset" />
          </mxGeometry>
        </mxCell>
        <mxCell id="Un6Vurzm9FbepwC08adx-27" value="«Ollama API Handler»&lt;br&gt;&lt;b&gt;Component&lt;/b&gt;" style="html=1;dropTarget=0;whiteSpace=wrap;" parent="1" vertex="1">
          <mxGeometry x="2420" y="330" width="180" height="90" as="geometry" />
        </mxCell>
        <mxCell id="Un6Vurzm9FbepwC08adx-28" value="" style="shape=module;jettyWidth=8;jettyHeight=4;" parent="Un6Vurzm9FbepwC08adx-27" vertex="1">
          <mxGeometry x="1" width="20" height="20" relative="1" as="geometry">
            <mxPoint x="-27" y="7" as="offset" />
          </mxGeometry>
        </mxCell>
        <mxCell id="Un6Vurzm9FbepwC08adx-32" value="&lt;span style=&quot;font-size: 18px;&quot;&gt;Ollama Module&lt;/span&gt;&lt;div&gt;&lt;span style=&quot;font-size: 18px;&quot;&gt;&lt;br&gt;&lt;/span&gt;&lt;/div&gt;&lt;div&gt;&lt;span style=&quot;font-size: 18px;&quot;&gt;&lt;br&gt;&lt;/span&gt;&lt;/div&gt;" style="shape=module;align=left;spacingLeft=20;align=center;verticalAlign=top;whiteSpace=wrap;html=1;" parent="1" vertex="1">
          <mxGeometry x="2105" y="335" width="190" height="80" as="geometry" />
        </mxCell>
        <mxCell id="Un6Vurzm9FbepwC08adx-39" value="User Manager" style="verticalAlign=top;align=left;spacingTop=8;spacingLeft=2;spacingRight=12;shape=cube;size=10;direction=south;fontStyle=4;html=1;whiteSpace=wrap;" parent="1" vertex="1">
          <mxGeometry x="1490" y="165" width="510" height="275" as="geometry" />
        </mxCell>
        <mxCell id="Un6Vurzm9FbepwC08adx-41" value="&lt;span style=&quot;font-size: 18px;&quot;&gt;OpenAI API&amp;nbsp;&lt;/span&gt;" style="shape=module;align=left;spacingLeft=20;align=center;verticalAlign=top;whiteSpace=wrap;html=1;" parent="1" vertex="1">
          <mxGeometry x="3081" y="330" width="190" height="90" as="geometry" />
        </mxCell>
        <mxCell id="Un6Vurzm9FbepwC08adx-48" value="&lt;span style=&quot;font-size: 18px;&quot;&gt;SQL DB&lt;/span&gt;" style="shape=module;align=left;spacingLeft=20;align=center;verticalAlign=top;whiteSpace=wrap;html=1;" parent="1" vertex="1">
          <mxGeometry x="2110" y="220" width="190" height="50" as="geometry" />
        </mxCell>
        <mxCell id="Un6Vurzm9FbepwC08adx-50" value="Use" style="endArrow=open;endSize=12;dashed=1;html=1;rounded=0;entryX=1;entryY=0.5;entryDx=0;entryDy=0;exitX=0;exitY=0.5;exitDx=0;exitDy=0;" parent="1" source="Un6Vurzm9FbepwC08adx-27" target="Un6Vurzm9FbepwC08adx-32" edge="1">
          <mxGeometry width="160" relative="1" as="geometry">
            <mxPoint x="2450" y="380" as="sourcePoint" />
            <mxPoint x="3060" y="250" as="targetPoint" />
          </mxGeometry>
        </mxCell>
        <mxCell id="Un6Vurzm9FbepwC08adx-51" value="Use" style="endArrow=open;endSize=12;dashed=1;html=1;rounded=0;entryX=0;entryY=0.5;entryDx=10;entryDy=0;entryPerimeter=0;" parent="1" target="Un6Vurzm9FbepwC08adx-41" edge="1">
          <mxGeometry width="160" relative="1" as="geometry">
            <mxPoint x="2900" y="374.74" as="sourcePoint" />
            <mxPoint x="3185" y="374.74" as="targetPoint" />
          </mxGeometry>
        </mxCell>
        <mxCell id="Un6Vurzm9FbepwC08adx-63" style="edgeStyle=orthogonalEdgeStyle;rounded=0;orthogonalLoop=1;jettySize=auto;html=1;exitX=1;exitY=0.5;exitDx=0;exitDy=0;exitPerimeter=0;entryX=0.498;entryY=0.014;entryDx=0;entryDy=0;entryPerimeter=0;" parent="1" target="Un6Vurzm9FbepwC08adx-55" edge="1">
          <mxGeometry relative="1" as="geometry">
            <mxPoint x="1760" y="125" as="sourcePoint" />
            <mxPoint x="1890" y="200" as="targetPoint" />
            <Array as="points">
              <mxPoint x="1760" y="190" />
              <mxPoint x="1890" y="190" />
            </Array>
          </mxGeometry>
        </mxCell>
        <mxCell id="Un6Vurzm9FbepwC08adx-64" style="edgeStyle=orthogonalEdgeStyle;rounded=0;orthogonalLoop=1;jettySize=auto;html=1;exitX=1;exitY=0.5;exitDx=0;exitDy=0;exitPerimeter=0;entryX=0.5;entryY=0;entryDx=0;entryDy=0;" parent="1" target="Un6Vurzm9FbepwC08adx-57" edge="1">
          <mxGeometry relative="1" as="geometry">
            <mxPoint x="1758" y="190" as="sourcePoint" />
            <mxPoint x="1643.38" y="255.70000000000005" as="targetPoint" />
          </mxGeometry>
        </mxCell>
        <mxCell id="Un6Vurzm9FbepwC08adx-52" value="" style="shape=providedRequiredInterface;html=1;verticalLabelPosition=bottom;sketch=0;direction=south;" parent="1" vertex="1">
          <mxGeometry x="1730" y="75" width="60" height="60" as="geometry" />
        </mxCell>
        <mxCell id="Un6Vurzm9FbepwC08adx-54" style="edgeStyle=orthogonalEdgeStyle;rounded=0;orthogonalLoop=1;jettySize=auto;html=1;entryX=0;entryY=0.5;entryDx=0;entryDy=0;entryPerimeter=0;" parent="1" target="Un6Vurzm9FbepwC08adx-52" edge="1">
          <mxGeometry relative="1" as="geometry">
            <mxPoint x="2150.0117647058823" as="sourcePoint" />
            <mxPoint x="1740" y="75" as="targetPoint" />
            <Array as="points">
              <mxPoint x="2160" />
              <mxPoint x="2160" y="40" />
              <mxPoint x="1760" y="40" />
            </Array>
          </mxGeometry>
        </mxCell>
        <mxCell id="Un6Vurzm9FbepwC08adx-55" value="«Authentication &amp;amp; Authorization»&lt;br&gt;&lt;b&gt;Component&lt;/b&gt;" style="html=1;dropTarget=0;whiteSpace=wrap;" parent="1" vertex="1">
          <mxGeometry x="1780" y="200" width="180" height="90" as="geometry" />
        </mxCell>
        <mxCell id="Un6Vurzm9FbepwC08adx-56" value="" style="shape=module;jettyWidth=8;jettyHeight=4;" parent="Un6Vurzm9FbepwC08adx-55" vertex="1">
          <mxGeometry x="1" width="20" height="20" relative="1" as="geometry">
            <mxPoint x="-27" y="7" as="offset" />
          </mxGeometry>
        </mxCell>
        <mxCell id="Un6Vurzm9FbepwC08adx-57" value="«&lt;strong&gt;Session Manager&lt;/strong&gt;»&lt;br&gt;&lt;b&gt;Component&lt;/b&gt;" style="html=1;dropTarget=0;whiteSpace=wrap;" parent="1" vertex="1">
          <mxGeometry x="1530" y="270" width="180" height="90" as="geometry" />
        </mxCell>
        <mxCell id="Un6Vurzm9FbepwC08adx-58" value="" style="shape=module;jettyWidth=8;jettyHeight=4;" parent="Un6Vurzm9FbepwC08adx-57" vertex="1">
          <mxGeometry x="1" width="20" height="20" relative="1" as="geometry">
            <mxPoint x="-27" y="7" as="offset" />
          </mxGeometry>
        </mxCell>
        <mxCell id="Un6Vurzm9FbepwC08adx-59" value="«&lt;b&gt;Admin Manger&lt;/b&gt;»&lt;br&gt;&lt;b&gt;Component&lt;/b&gt;" style="html=1;dropTarget=0;whiteSpace=wrap;" parent="1" vertex="1">
          <mxGeometry x="1780" y="330" width="180" height="90" as="geometry" />
        </mxCell>
        <mxCell id="Un6Vurzm9FbepwC08adx-60" value="" style="shape=module;jettyWidth=8;jettyHeight=4;" parent="Un6Vurzm9FbepwC08adx-59" vertex="1">
          <mxGeometry x="1" width="20" height="20" relative="1" as="geometry">
            <mxPoint x="-27" y="7" as="offset" />
          </mxGeometry>
        </mxCell>
        <mxCell id="Un6Vurzm9FbepwC08adx-62" value="Use" style="endArrow=open;endSize=12;dashed=1;html=1;rounded=0;entryX=0;entryY=0.5;entryDx=10;entryDy=0;exitX=1;exitY=0.5;exitDx=0;exitDy=0;entryPerimeter=0;" parent="1" source="Un6Vurzm9FbepwC08adx-59" target="Un6Vurzm9FbepwC08adx-32" edge="1">
          <mxGeometry width="160" relative="1" as="geometry">
            <mxPoint x="2270" y="390" as="sourcePoint" />
            <mxPoint x="2120" y="390" as="targetPoint" />
          </mxGeometry>
        </mxCell>
        <mxCell id="Un6Vurzm9FbepwC08adx-66" style="edgeStyle=orthogonalEdgeStyle;rounded=0;orthogonalLoop=1;jettySize=auto;html=1;entryX=0.059;entryY=0.504;entryDx=0;entryDy=0;entryPerimeter=0;" parent="1" source="Un6Vurzm9FbepwC08adx-55" target="Un6Vurzm9FbepwC08adx-48" edge="1">
          <mxGeometry relative="1" as="geometry" />
        </mxCell>
        <mxCell id="Un6Vurzm9FbepwC08adx-68" value="Knowledge Service" style="verticalAlign=top;align=left;spacingTop=8;spacingLeft=2;spacingRight=12;shape=cube;size=10;direction=south;fontStyle=4;html=1;whiteSpace=wrap;" parent="1" vertex="1">
          <mxGeometry x="1505" y="680" width="510" height="275" as="geometry" />
        </mxCell>
        <mxCell id="Un6Vurzm9FbepwC08adx-69" value="RAG Service" style="verticalAlign=top;align=left;spacingTop=8;spacingLeft=2;spacingRight=12;shape=cube;size=10;direction=south;fontStyle=4;html=1;whiteSpace=wrap;" parent="1" vertex="1">
          <mxGeometry x="2350" y="680" width="510" height="275" as="geometry" />
        </mxCell>
        <mxCell id="Un6Vurzm9FbepwC08adx-70" value="«Embedding Geneator»&lt;br&gt;&lt;b&gt;Component&lt;/b&gt;" style="html=1;dropTarget=0;whiteSpace=wrap;" parent="1" vertex="1">
          <mxGeometry x="2515" y="700" width="180" height="90" as="geometry" />
        </mxCell>
        <mxCell id="Un6Vurzm9FbepwC08adx-71" value="" style="shape=module;jettyWidth=8;jettyHeight=4;" parent="Un6Vurzm9FbepwC08adx-70" vertex="1">
          <mxGeometry x="1" width="20" height="20" relative="1" as="geometry">
            <mxPoint x="-27" y="7" as="offset" />
          </mxGeometry>
        </mxCell>
        <mxCell id="Un6Vurzm9FbepwC08adx-85" style="edgeStyle=orthogonalEdgeStyle;rounded=0;orthogonalLoop=1;jettySize=auto;html=1;entryX=1;entryY=0.5;entryDx=0;entryDy=0;exitX=0;exitY=0.5;exitDx=0;exitDy=0;" parent="1" source="Un6Vurzm9FbepwC08adx-72" edge="1">
          <mxGeometry relative="1" as="geometry">
            <mxPoint x="2729.9999999999995" y="810" as="sourcePoint" />
            <mxPoint x="2545.0000000000005" y="895" as="targetPoint" />
            <Array as="points">
              <mxPoint x="2650" y="895" />
              <mxPoint x="2650" y="895" />
            </Array>
          </mxGeometry>
        </mxCell>
        <mxCell id="Un6Vurzm9FbepwC08adx-72" value="«Context Aggregator»&lt;br&gt;&lt;b&gt;Component&lt;/b&gt;" style="html=1;dropTarget=0;whiteSpace=wrap;" parent="1" vertex="1">
          <mxGeometry x="2660" y="850" width="180" height="90" as="geometry" />
        </mxCell>
        <mxCell id="Un6Vurzm9FbepwC08adx-73" value="" style="shape=module;jettyWidth=8;jettyHeight=4;" parent="Un6Vurzm9FbepwC08adx-72" vertex="1">
          <mxGeometry x="1" width="20" height="20" relative="1" as="geometry">
            <mxPoint x="-27" y="7" as="offset" />
          </mxGeometry>
        </mxCell>
        <mxCell id="Un6Vurzm9FbepwC08adx-74" value="«Vector Store manager»&lt;br&gt;&lt;b&gt;Component&lt;/b&gt;" style="html=1;dropTarget=0;whiteSpace=wrap;" parent="1" vertex="1">
          <mxGeometry x="2370" y="850" width="180" height="90" as="geometry" />
        </mxCell>
        <mxCell id="Un6Vurzm9FbepwC08adx-75" value="" style="shape=module;jettyWidth=8;jettyHeight=4;" parent="Un6Vurzm9FbepwC08adx-74" vertex="1">
          <mxGeometry x="1" width="20" height="20" relative="1" as="geometry">
            <mxPoint x="-27" y="7" as="offset" />
          </mxGeometry>
        </mxCell>
        <mxCell id="Un6Vurzm9FbepwC08adx-76" value="&lt;span style=&quot;font-size: 18px;&quot;&gt;Vector DB&lt;/span&gt;" style="shape=module;align=left;spacingLeft=20;align=center;verticalAlign=top;whiteSpace=wrap;html=1;" parent="1" vertex="1">
          <mxGeometry x="2105" y="1010" width="190" height="50" as="geometry" />
        </mxCell>
        <mxCell id="Un6Vurzm9FbepwC08adx-80" style="edgeStyle=orthogonalEdgeStyle;rounded=0;orthogonalLoop=1;jettySize=auto;html=1;exitX=0;exitY=0.5;exitDx=0;exitDy=0;exitPerimeter=0;entryX=0.5;entryY=0;entryDx=0;entryDy=0;" parent="1" source="Un6Vurzm9FbepwC08adx-79" target="Un6Vurzm9FbepwC08adx-72" edge="1">
          <mxGeometry relative="1" as="geometry">
            <mxPoint x="2620.120000000001" y="630.0699999999999" as="sourcePoint" />
            <mxPoint x="2551.94" y="768.73" as="targetPoint" />
            <Array as="points">
              <mxPoint x="2640" y="660" />
              <mxPoint x="2750" y="660" />
            </Array>
          </mxGeometry>
        </mxCell>
        <mxCell id="Un6Vurzm9FbepwC08adx-79" value="" style="shape=providedRequiredInterface;html=1;verticalLabelPosition=bottom;sketch=0;direction=north;" parent="1" vertex="1">
          <mxGeometry x="2610" y="540" width="60" height="60" as="geometry" />
        </mxCell>
        <mxCell id="Un6Vurzm9FbepwC08adx-97" style="edgeStyle=orthogonalEdgeStyle;rounded=0;orthogonalLoop=1;jettySize=auto;html=1;entryX=0.5;entryY=0;entryDx=0;entryDy=0;exitX=0;exitY=0.5;exitDx=0;exitDy=0;exitPerimeter=0;" parent="1" source="Un6Vurzm9FbepwC08adx-89" target="Un6Vurzm9FbepwC08adx-91" edge="1">
          <mxGeometry relative="1" as="geometry">
            <mxPoint x="1634.8022222222226" y="620" as="sourcePoint" />
            <mxPoint x="1634.7800000000002" y="720" as="targetPoint" />
            <Array as="points">
              <mxPoint x="2040" y="640" />
              <mxPoint x="1760" y="640" />
            </Array>
          </mxGeometry>
        </mxCell>
        <mxCell id="Un6Vurzm9FbepwC08adx-89" value="" style="shape=providedRequiredInterface;html=1;verticalLabelPosition=bottom;sketch=0;direction=north;" parent="1" vertex="1">
          <mxGeometry x="2010" y="550" width="60" height="60" as="geometry" />
        </mxCell>
        <mxCell id="Un6Vurzm9FbepwC08adx-90" value="Use" style="endArrow=open;endSize=12;dashed=1;html=1;rounded=0;entryX=0.75;entryY=0;entryDx=0;entryDy=0;exitX=0.5;exitY=1;exitDx=0;exitDy=0;" parent="1" source="Un6Vurzm9FbepwC08adx-74" target="Un6Vurzm9FbepwC08adx-76" edge="1">
          <mxGeometry width="160" relative="1" as="geometry">
            <mxPoint x="2779" y="1100" as="sourcePoint" />
            <mxPoint x="2871.5" y="1050" as="targetPoint" />
          </mxGeometry>
        </mxCell>
        <mxCell id="Un6Vurzm9FbepwC08adx-91" value="«Document Processor»&lt;br&gt;&lt;b&gt;Component&lt;/b&gt;" style="html=1;dropTarget=0;whiteSpace=wrap;" parent="1" vertex="1">
          <mxGeometry x="1670" y="720" width="180" height="90" as="geometry" />
        </mxCell>
        <mxCell id="Un6Vurzm9FbepwC08adx-92" value="" style="shape=module;jettyWidth=8;jettyHeight=4;" parent="Un6Vurzm9FbepwC08adx-91" vertex="1">
          <mxGeometry x="1" width="20" height="20" relative="1" as="geometry">
            <mxPoint x="-27" y="7" as="offset" />
          </mxGeometry>
        </mxCell>
        <mxCell id="Un6Vurzm9FbepwC08adx-93" value="«Metadata Manager»&lt;br&gt;&lt;b&gt;Component&lt;/b&gt;" style="html=1;dropTarget=0;whiteSpace=wrap;" parent="1" vertex="1">
          <mxGeometry x="1795" y="850" width="180" height="90" as="geometry" />
        </mxCell>
        <mxCell id="Un6Vurzm9FbepwC08adx-94" value="" style="shape=module;jettyWidth=8;jettyHeight=4;" parent="Un6Vurzm9FbepwC08adx-93" vertex="1">
          <mxGeometry x="1" width="20" height="20" relative="1" as="geometry">
            <mxPoint x="-27" y="7" as="offset" />
          </mxGeometry>
        </mxCell>
        <mxCell id="Un6Vurzm9FbepwC08adx-95" value="«Data Indexer»&lt;br&gt;&lt;b&gt;Component&lt;/b&gt;" style="html=1;dropTarget=0;whiteSpace=wrap;" parent="1" vertex="1">
          <mxGeometry x="1530" y="850" width="180" height="90" as="geometry" />
        </mxCell>
        <mxCell id="Un6Vurzm9FbepwC08adx-96" value="" style="shape=module;jettyWidth=8;jettyHeight=4;" parent="Un6Vurzm9FbepwC08adx-95" vertex="1">
          <mxGeometry x="1" width="20" height="20" relative="1" as="geometry">
            <mxPoint x="-27" y="7" as="offset" />
          </mxGeometry>
        </mxCell>
        <mxCell id="Un6Vurzm9FbepwC08adx-116" style="edgeStyle=orthogonalEdgeStyle;rounded=0;orthogonalLoop=1;jettySize=auto;html=1;exitX=0;exitY=0;exitDx=275;exitDy=260;exitPerimeter=0;entryX=1;entryY=0.5;entryDx=0;entryDy=0;entryPerimeter=0;" parent="1" source="Un6Vurzm9FbepwC08adx-105" target="Un6Vurzm9FbepwC08adx-89" edge="1">
          <mxGeometry relative="1" as="geometry">
            <mxPoint x="2070" y="520" as="targetPoint" />
            <Array as="points">
              <mxPoint x="2180" />
              <mxPoint x="2180" y="80" />
              <mxPoint x="2040" y="80" />
            </Array>
          </mxGeometry>
        </mxCell>
        <mxCell id="Un6Vurzm9FbepwC08adx-105" value="API Gateway" style="verticalAlign=top;align=left;spacingTop=8;spacingLeft=2;spacingRight=12;shape=cube;size=10;direction=south;fontStyle=4;html=1;whiteSpace=wrap;" parent="1" vertex="1">
          <mxGeometry x="1945" y="-275" width="510" height="275" as="geometry" />
        </mxCell>
        <mxCell id="Un6Vurzm9FbepwC08adx-110" value="«&lt;span style=&quot;box-sizing: border-box; font-weight: var(--base-text-weight-semibold, 600); color: rgb(240, 246, 252); font-family: -apple-system, BlinkMacSystemFont, &amp;quot;Segoe UI&amp;quot;, &amp;quot;Noto Sans&amp;quot;, Helvetica, Arial, sans-serif, &amp;quot;Apple Color Emoji&amp;quot;, &amp;quot;Segoe UI Emoji&amp;quot;; font-size: 16px; text-align: left; background-color: rgb(13, 17, 23);&quot;&gt;Real-Time Server&lt;/span&gt;»&lt;br&gt;&lt;b&gt;Component&lt;/b&gt;" style="html=1;dropTarget=0;whiteSpace=wrap;" parent="1" vertex="1">
          <mxGeometry x="2105" y="-250" width="180" height="90" as="geometry" />
        </mxCell>
        <mxCell id="Un6Vurzm9FbepwC08adx-111" value="" style="shape=module;jettyWidth=8;jettyHeight=4;" parent="Un6Vurzm9FbepwC08adx-110" vertex="1">
          <mxGeometry x="1" width="20" height="20" relative="1" as="geometry">
            <mxPoint x="-27" y="7" as="offset" />
          </mxGeometry>
        </mxCell>
        <mxCell id="Un6Vurzm9FbepwC08adx-112" value="«&lt;span style=&quot;box-sizing: border-box; font-weight: var(--base-text-weight-semibold, 600); color: rgb(240, 246, 252); font-family: -apple-system, BlinkMacSystemFont, &amp;quot;Segoe UI&amp;quot;, &amp;quot;Noto Sans&amp;quot;, Helvetica, Arial, sans-serif, &amp;quot;Apple Color Emoji&amp;quot;, &amp;quot;Segoe UI Emoji&amp;quot;; font-size: 16px; text-align: left; background-color: rgb(13, 17, 23);&quot;&gt;Load Balancer&lt;/span&gt;»&lt;br&gt;&lt;b&gt;Component&lt;/b&gt;" style="html=1;dropTarget=0;whiteSpace=wrap;" parent="1" vertex="1">
          <mxGeometry x="2240" y="-130" width="180" height="90" as="geometry" />
        </mxCell>
        <mxCell id="Un6Vurzm9FbepwC08adx-113" value="" style="shape=module;jettyWidth=8;jettyHeight=4;" parent="Un6Vurzm9FbepwC08adx-112" vertex="1">
          <mxGeometry x="1" width="20" height="20" relative="1" as="geometry">
            <mxPoint x="-27" y="7" as="offset" />
          </mxGeometry>
        </mxCell>
        <mxCell id="Un6Vurzm9FbepwC08adx-114" value="«&lt;span style=&quot;box-sizing: border-box; font-weight: var(--base-text-weight-semibold, 600); color: rgb(240, 246, 252); font-family: -apple-system, BlinkMacSystemFont, &amp;quot;Segoe UI&amp;quot;, &amp;quot;Noto Sans&amp;quot;, Helvetica, Arial, sans-serif, &amp;quot;Apple Color Emoji&amp;quot;, &amp;quot;Segoe UI Emoji&amp;quot;; font-size: 16px; text-align: left; background-color: rgb(13, 17, 23);&quot;&gt;Request Router&lt;/span&gt;»&lt;br&gt;&lt;b&gt;Component&lt;/b&gt;" style="html=1;dropTarget=0;whiteSpace=wrap;" parent="1" vertex="1">
          <mxGeometry x="1970" y="-130" width="180" height="90" as="geometry" />
        </mxCell>
        <mxCell id="Un6Vurzm9FbepwC08adx-115" value="" style="shape=module;jettyWidth=8;jettyHeight=4;" parent="Un6Vurzm9FbepwC08adx-114" vertex="1">
          <mxGeometry x="1" width="20" height="20" relative="1" as="geometry">
            <mxPoint x="-27" y="7" as="offset" />
          </mxGeometry>
        </mxCell>
        <mxCell id="Un6Vurzm9FbepwC08adx-122" value="Use" style="endArrow=open;endSize=12;dashed=1;html=1;rounded=0;entryX=0.25;entryY=0;entryDx=0;entryDy=0;exitX=0.5;exitY=1;exitDx=0;exitDy=0;" parent="1" source="Un6Vurzm9FbepwC08adx-93" target="Un6Vurzm9FbepwC08adx-76" edge="1">
          <mxGeometry width="160" relative="1" as="geometry">
            <mxPoint x="2470" y="950" as="sourcePoint" />
            <mxPoint x="2258" y="1020" as="targetPoint" />
          </mxGeometry>
        </mxCell>
        <mxCell id="Un6Vurzm9FbepwC08adx-123" value="Use" style="endArrow=open;endSize=12;dashed=1;html=1;rounded=0;exitX=0;exitY=0.5;exitDx=0;exitDy=0;" parent="1" source="Un6Vurzm9FbepwC08adx-70" edge="1">
          <mxGeometry width="160" relative="1" as="geometry">
            <mxPoint x="2350" y="520" as="sourcePoint" />
            <mxPoint x="2200" y="420" as="targetPoint" />
          </mxGeometry>
        </mxCell>
        <mxCell id="Un6Vurzm9FbepwC08adx-124" value="Use" style="endArrow=open;endSize=12;dashed=1;html=1;rounded=0;exitX=1;exitY=0.5;exitDx=0;exitDy=0;entryX=0.5;entryY=1;entryDx=0;entryDy=0;" parent="1" source="Un6Vurzm9FbepwC08adx-70" target="Un6Vurzm9FbepwC08adx-41" edge="1">
          <mxGeometry width="160" relative="1" as="geometry">
            <mxPoint x="3145" y="825" as="sourcePoint" />
            <mxPoint x="2950" y="480" as="targetPoint" />
          </mxGeometry>
        </mxCell>
      </root>
    </mxGraphModel>
  </diagram>
</mxfile>
